<svg width="24" height="24" viewBox="0 0 24 24" fill="none" xmlns="http://www.w3.org/2000/svg">
<g id="icons8-github 1">
<path id="Vector" d="M8.5397 22.4813C8.88098 22.3344 9.12002 21.995 9.12002 21.6V19.008C9.12002 18.9134 9.1277 18.815 9.1397 18.7152C9.13298 18.7171 9.12674 18.7186 9.12002 18.72C9.12002 18.72 7.68002 18.72 7.39202 18.72C6.67202 18.72 6.04802 18.432 5.76002 17.856C5.42402 17.232 5.28002 16.176 4.41602 15.6C4.27202 15.504 4.36802 15.36 4.65602 15.36C4.94402 15.408 5.56802 15.792 5.95202 16.32C6.38402 16.848 6.81602 17.28 7.58402 17.28C8.77778 17.28 9.41762 17.22 9.80258 17.0136C10.2509 16.3469 10.8715 15.84 11.52 15.84V15.828C8.79938 15.7406 7.0613 14.8363 6.25202 13.44C4.49282 13.4602 2.96114 13.6344 2.08706 13.7794C2.05922 13.6224 2.03522 13.4645 2.01458 13.3056C2.87714 13.1635 4.33922 12.995 6.02018 12.9629C5.96642 12.8304 5.91986 12.6946 5.8805 12.5554C4.19522 12.4699 2.74082 12.5366 1.95074 12.6019C1.94114 12.4426 1.92818 12.2837 1.92626 12.1224C2.71778 12.0576 4.13282 11.9928 5.7749 12.0691C5.73698 11.8291 5.7125 11.5838 5.7125 11.3285C5.7125 10.5125 6.0005 9.64848 6.5285 8.92848C6.2885 8.11248 5.9525 6.38448 6.6245 5.76048C7.9205 5.76048 8.8325 6.38448 9.2645 6.76848C10.08 6.432 10.992 6.24 12 6.24C13.008 6.24 13.92 6.432 14.688 6.768C15.12 6.384 16.032 5.76 17.328 5.76C18.048 6.432 17.664 8.16 17.424 8.928C17.952 9.648 18.24 10.464 18.192 11.328C18.192 11.5603 18.1704 11.7845 18.1392 12.0043C19.8187 11.9218 21.2722 11.988 22.0771 12.0533C22.0762 12.215 22.0613 12.373 22.0527 12.5328C21.2506 12.4666 19.7607 12.3984 18.0403 12.4901C17.9976 12.6514 17.9458 12.8083 17.8843 12.9605C19.5864 12.9826 21.0835 13.1472 21.9874 13.2912C21.9667 13.4506 21.9427 13.6085 21.9149 13.765C20.9971 13.6181 19.4328 13.4462 17.653 13.4376C16.8538 14.819 15.1474 15.72 12.48 15.8251V15.84C13.728 15.84 14.88 17.712 14.88 19.008V21.6C14.88 21.995 15.1191 22.3344 15.4603 22.4813C19.8576 21.0259 23.04 16.8787 23.04 12C23.04 5.91264 18.0879 0.959999 12 0.959999C5.91218 0.959999 0.960022 5.91264 0.960022 12C0.960022 16.8787 4.14242 21.0259 8.5397 22.4813Z" fill="#21251F"/>
</g>
</svg>
