<svg width="24" height="24" viewBox="0 0 24 24" fill="none" xmlns="http://www.w3.org/2000/svg">
<g id="icons8-linkedin 1">
<path id="Vector" d="M19.68 2.42H4.31998C2.99518 2.42 1.91998 3.4952 1.91998 4.82V20.18C1.91998 21.5048 2.99518 22.58 4.31998 22.58H19.68C21.0048 22.58 22.08 21.5048 22.08 20.18V4.82C22.08 3.4952 21.0048 2.42 19.68 2.42ZM8.15998 10.1V19.22H5.27998V10.1H8.15998ZM5.27998 7.4456C5.27998 6.7736 5.85598 6.26 6.71998 6.26C7.58398 6.26 8.12638 6.7736 8.15998 7.4456C8.15998 8.1176 7.62238 8.66 6.71998 8.66C5.85598 8.66 5.27998 8.1176 5.27998 7.4456ZM18.72 19.22H15.84C15.84 19.22 15.84 14.7752 15.84 14.42C15.84 13.46 15.36 12.5 14.16 12.4808H14.1216C12.96 12.4808 12.48 13.4696 12.48 14.42C12.48 14.8568 12.48 19.22 12.48 19.22H9.59998V10.1H12.48V11.3288C12.48 11.3288 13.4064 10.1 15.2688 10.1C17.1744 10.1 18.72 11.4104 18.72 14.0648V19.22Z" fill="#21251F"/>
</g>
</svg>
