<svg width="12" height="12" viewBox="0 0 12 12" fill="none" xmlns="http://www.w3.org/2000/svg">
<path d="M10.75 0.75V0.25H11.25V0.75H10.75ZM8.60355 3.60355C8.40829 3.79882 8.09171 3.79882 7.89645 3.60355C7.70118 3.40829 7.70118 3.09171 7.89645 2.89645L8.60355 3.60355ZM10.25 3V0.75H11.25V3H10.25ZM10.75 1.25H8.5V0.25H10.75V1.25ZM11.1036 1.10355L8.60355 3.60355L7.89645 2.89645L10.3964 0.396447L11.1036 1.10355Z" fill="white"/>
<path d="M6 0.75H5.25C3.04086 0.75 1.25 2.54086 1.25 4.75V6.25C1.25 8.45914 3.04086 10.25 5.25 10.25H6.75C8.95914 10.25 10.75 8.45914 10.75 6.25V5.5" stroke="white"/>
<path d="M1.25 6.74994L2.28227 5.7177C3.04652 4.95346 4.3163 5.06796 4.93152 5.95657V5.95657C5.50725 6.78816 6.66998 6.95173 7.4528 6.31126L7.49848 6.27388C8.20896 5.6926 9.24431 5.74425 9.89341 6.39335L10.75 7.24994" stroke="white"/>
</svg>
