<svg xmlns="http://www.w3.org/2000/svg" width="32" height="33" viewBox="0 0 32 33" fill="none">
  <path d="M16.0003 24.5V16.5M16.0003 16.5L12.0003 19.1667M16.0003 16.5L20.0003 19.1667M17.3337 4.50116C17.2063 4.5 17.0634 4.5 16.8999 4.5H10.9339C9.44045 4.5 8.69315 4.5 8.12272 4.79065C7.62096 5.04631 7.2133 5.45396 6.95764 5.95573C6.66699 6.52616 6.66699 7.27345 6.66699 8.76693V24.2336C6.66699 25.7271 6.66699 26.4734 6.95764 27.0438C7.2133 27.5456 7.62096 27.954 8.12272 28.2096C8.6926 28.5 9.439 28.5 10.9296 28.5L21.0711 28.5C22.5617 28.5 23.307 28.5 23.8769 28.2096C24.3786 27.954 24.7876 27.5456 25.0433 27.0438C25.3337 26.474 25.3337 25.7287 25.3337 24.2381V12.9342C25.3337 12.7706 25.3336 12.6275 25.3324 12.5M17.3337 4.50116C17.7145 4.50463 17.9554 4.51846 18.1854 4.57368C18.4575 4.639 18.7175 4.74702 18.9561 4.89323C19.2251 5.05809 19.4561 5.28909 19.917 5.75L24.0843 9.91731C24.5455 10.3785 24.7748 10.6085 24.9397 10.8776C25.0859 11.1162 25.1941 11.3763 25.2594 11.6484C25.3146 11.8783 25.3288 12.1193 25.3324 12.5M17.3337 4.50116V8.23333C17.3337 9.72681 17.3337 10.473 17.6243 11.0435C17.88 11.5452 18.2876 11.954 18.7894 12.2096C19.3593 12.5 20.1057 12.5 21.5962 12.5H25.3324M25.3324 12.5H25.3339" stroke="white" stroke-width="1.5" stroke-linecap="round" stroke-linejoin="round"/>
</svg>