<svg xmlns="http://www.w3.org/2000/svg" width="24" height="25" viewBox="0 0 24 25" fill="none">
  <path d="M6 6.5V18.3C6 19.4201 6 19.9798 6.21799 20.4076C6.40973 20.7839 6.71547 21.0905 7.0918 21.2822C7.5192 21.5 8.07899 21.5 9.19691 21.5H14.8031C15.921 21.5 16.48 21.5 16.9074 21.2822C17.2837 21.0905 17.5905 20.7839 17.7822 20.4076C18 19.9802 18 19.421 18 18.3031V6.5M6 6.5H8M6 6.5H4M8 6.5H16M8 6.5C8 5.56812 8 5.10241 8.15224 4.73486C8.35523 4.24481 8.74432 3.85523 9.23438 3.65224C9.60192 3.5 10.0681 3.5 11 3.5H13C13.9319 3.5 14.3978 3.5 14.7654 3.65224C15.2554 3.85523 15.6447 4.24481 15.8477 4.73486C15.9999 5.1024 16 5.56812 16 6.5M16 6.5H18M18 6.5H20" stroke="white" stroke-width="1.5" stroke-linecap="round" stroke-linejoin="round"/>
</svg>