<svg width="32" height="32" viewBox="0 0 32 32" fill="none" xmlns="http://www.w3.org/2000/svg">
  <path fill-rule="evenodd" clip-rule="evenodd" d="M8 17.3333H16H24C26.2091 17.3333 28 15.5425 28 13.3333C28 11.1242 26.2091 9.33333 24 9.33333C23.4172 9.33333 23.1258 9.33333 22.9174 9.23102C22.8329 9.18954 22.7919 9.16301 22.7194 9.10291C22.5408 8.95464 22.3889 8.61634 22.0853 7.93974C21.043 5.61743 18.7104 4 16 4C13.2896 4 10.957 5.61743 9.91474 7.93974C9.61108 8.61634 9.45925 8.95464 9.28055 9.10291C9.20812 9.16301 9.16713 9.18954 9.08264 9.23102C8.8742 9.33333 8.5828 9.33333 8 9.33333C5.79086 9.33333 4 11.1242 4 13.3333C4 15.5425 5.79086 17.3333 8 17.3333Z" fill="#646464"/>
  <path d="M12.6667 15.3333L16 12M16 12L19.3333 15.3333M16 12L16 25.3333" stroke="#C8F560" stroke-linecap="round"/>
</svg>